<svg width="800" height="800" viewBox="0 0 800 800" fill="none" xmlns="http://www.w3.org/2000/svg">
<rect x="114" y="39" width="572" height="722" rx="27" fill="url(#paint0_linear_351_325)" fill-opacity="0.15"/>
<rect x="114" y="39" width="572" height="722" rx="27" stroke="white" stroke-width="2"/>
<path opacity="0.4" d="M646 88C648.761 88 651 90.2386 651 93C651 95.7614 648.761 98 646 98H154C151.239 98 149 95.7614 149 93C149 90.2386 151.239 88 154 88H646Z" fill="white"/>
<path opacity="0.4" d="M646 182C648.761 182 651 184.239 651 187C651 189.761 648.761 192 646 192H154C151.239 192 149 189.761 149 187C149 184.239 151.239 182 154 182H646Z" fill="white"/>
<path opacity="0.4" d="M646 276C648.761 276 651 278.239 651 281C651 283.761 648.761 286 646 286H154C151.239 286 149 283.761 149 281C149 278.239 151.239 276 154 276H646Z" fill="white"/>
<path opacity="0.4" d="M647.152 370C649.277 370 651 372.239 651 375C651 377.761 649.277 380 647.152 380L467.848 380C465.723 380 464 377.761 464 375C464 372.239 465.723 370 467.848 370L647.152 370Z" fill="white"/>
<path opacity="0.4" d="M647.152 464C649.277 464 651 466.239 651 469C651 471.761 649.277 474 647.152 474L467.848 474C465.723 474 464 471.761 464 469C464 466.239 465.723 464 467.848 464L647.152 464Z" fill="white"/>
<path opacity="0.4" d="M648.305 558C649.793 558 651 560.239 651 563C651 565.761 649.793 568 648.305 568L522.695 568C521.207 568 520 565.761 520 563C520 560.239 521.207 558 522.695 558L648.305 558Z" fill="white"/>
<path opacity="0.4" d="M648.305 652C649.793 652 651 654.239 651 657C651 659.761 649.793 662 648.305 662L522.695 662C521.207 662 520 659.761 520 657C520 654.239 521.207 652 522.695 652L648.305 652Z" fill="white"/>
<path fill-rule="evenodd" clip-rule="evenodd" d="M492 669L361.161 330H284.839L154 669H224.871L276.8 518.158L326.933 669H492ZM411.404 640.75L328.452 399.794H317.549L291.907 474.277L347.235 640.75H411.404Z" fill="white"/>
<defs>
<linearGradient id="paint0_linear_351_325" x1="685" y1="40" x2="115" y2="760" gradientUnits="userSpaceOnUse">
<stop stop-color="#8591B4"/>
<stop offset="0.5" stop-color="#5C6D9B"/>
<stop offset="1" stop-color="#1F2B4E"/>
</linearGradient>
</defs>
</svg>
