<svg width="506" height="258" viewBox="0 0 506 258" fill="none" xmlns="http://www.w3.org/2000/svg">
<g clip-path="url(#clip0_351_336)">
<rect width="204" height="258" rx="26" fill="url(#paint0_linear_351_336)" fill-opacity="0.15"/>
<g opacity="0.4">
<path d="M190.042 17.2C191.03 17.2 191.832 18.0021 191.832 18.9916C191.832 19.9811 191.03 20.7833 190.042 20.7833H13.9579C12.9696 20.7833 12.1685 19.9811 12.1685 18.9916C12.1685 18.0021 12.9696 17.2 13.9579 17.2H190.042Z" fill="#ADB6CD"/>
<path d="M190.042 50.8833C191.03 50.8833 191.832 51.6854 191.832 52.6749C191.832 53.6645 191.03 54.4666 190.042 54.4666H13.9579C12.9696 54.4666 12.1685 53.6645 12.1685 52.6749C12.1685 51.6854 12.9696 50.8833 13.9579 50.8833H190.042Z" fill="#ADB6CD"/>
<path d="M190.042 84.5666C191.03 84.5666 191.832 85.3688 191.832 86.3583C191.832 87.3478 191.03 88.1499 190.042 88.1499H13.9579C12.9696 88.1499 12.1685 87.3478 12.1685 86.3583C12.1685 85.3688 12.9696 84.5666 13.9579 84.5666H190.042Z" fill="#ADB6CD"/>
<path d="M190.042 118.25C191.03 118.25 191.832 119.052 191.832 120.042C191.832 121.031 191.03 121.833 190.042 121.833L106.653 121.833C105.664 121.833 104.863 121.031 104.863 120.042C104.863 119.052 105.664 118.25 106.653 118.25L190.042 118.25Z" fill="#ADB6CD"/>
<path d="M190.042 151.933C191.03 151.933 191.832 152.735 191.832 153.725C191.832 154.714 191.03 155.517 190.042 155.517L106.653 155.517C105.664 155.517 104.863 154.714 104.863 153.725C104.863 152.735 105.664 151.933 106.653 151.933L190.042 151.933Z" fill="#ADB6CD"/>
<path d="M190.042 185.617C191.03 185.617 191.832 186.419 191.832 187.408C191.832 188.398 191.03 189.2 190.042 189.2L106.653 189.2C105.664 189.2 104.863 188.398 104.863 187.408C104.863 186.419 105.664 185.617 106.653 185.617L190.042 185.617Z" fill="#ADB6CD"/>
</g>
<path d="M16.1358 232.2V208.638H22.9942C30.7464 208.638 35.8333 213.292 35.8658 220.419C35.8333 227.546 30.7464 232.2 22.9942 232.2H16.1358ZM20.2963 228.295H22.9942C28.4223 228.295 31.6402 225.382 31.6402 220.419C31.6402 215.456 28.4223 212.543 22.9942 212.543H20.2963V228.295Z" fill="#5C6D9B"/>
<path d="M47.1772 232.656C42.1878 232.656 38.4174 228.848 38.4011 223.804C38.4174 218.759 42.1878 214.952 47.1772 214.952C52.1666 214.952 55.9371 218.759 55.9533 223.804C55.9371 228.848 52.1666 232.656 47.1772 232.656ZM47.1772 228.978C50.0213 228.962 52.0366 226.846 52.0528 223.804C52.0366 220.761 50.0213 218.645 47.1772 218.629C44.3331 218.645 42.3178 220.761 42.3016 223.804C42.3178 226.846 44.3331 228.962 47.1772 228.978Z" fill="#5C6D9B"/>
<path d="M67.2322 232.656C62.1779 232.656 58.3749 228.848 58.3586 223.804C58.3749 218.759 62.1779 214.952 67.2322 214.952C70.6289 214.952 73.3755 216.676 74.7732 219.41L71.2628 220.972C70.4827 219.492 69.0687 218.645 67.2322 218.629C64.3069 218.645 62.2754 220.761 62.2591 223.804C62.2754 226.846 64.3069 228.962 67.2322 228.978C69.0687 228.962 70.4827 228.116 71.2628 226.635L74.7732 228.197C73.3755 230.931 70.6289 232.656 67.2322 232.656Z" fill="#5C6D9B"/>
<path d="M93.1705 215.407V232.2H89.205V229.727H89.1075C88.1974 231.533 86.3447 232.656 83.9719 232.656C80.1689 232.656 78.0074 229.922 78.0236 225.463V215.407H82.0216V224.812C81.9891 227.481 83.1918 228.962 85.3045 228.978C87.3848 228.962 89.1888 227.481 89.205 224.129V215.407H93.1705Z" fill="#5C6D9B"/>
<path d="M97.266 232.2V215.407H101.232V217.881H101.362C102.174 216.074 103.897 214.952 106.107 214.952C108.529 214.952 110.235 216.237 111.08 218.499H111.178C111.893 216.335 113.794 214.952 116.346 214.952C119.97 214.952 122.067 217.685 122.067 222.144V232.2H118.069V222.795C118.085 220.126 116.996 218.645 115.143 218.629C113.291 218.645 111.682 220.094 111.665 223.381V232.2H107.667V222.795C107.667 220.126 106.578 218.645 104.709 218.629C102.873 218.645 101.248 220.126 101.232 223.478V232.2H97.266Z" fill="#5C6D9B"/>
<path d="M134.321 232.656C129.006 232.656 125.333 228.88 125.317 223.804C125.333 218.662 129.006 214.952 133.996 214.952C138.985 214.952 142.431 218.662 142.414 223.804C142.431 224.243 142.398 224.682 142.349 225.105H129.38C129.754 227.644 131.737 229.271 134.353 229.271C136.271 229.271 137.652 228.376 138.351 226.895L141.829 228.262C140.497 230.947 137.88 232.656 134.321 232.656ZM129.478 221.883H138.286C138.059 219.866 136.385 218.336 133.996 218.336C131.72 218.336 129.998 219.736 129.478 221.883Z" fill="#5C6D9B"/>
<path d="M145.697 232.2V215.407H149.663V217.881H149.793C150.67 216.074 152.523 214.952 154.896 214.952C158.699 214.952 160.86 217.685 160.844 222.144V232.2H156.846V222.795C156.879 220.126 155.676 218.645 153.563 218.629C151.483 218.645 149.679 220.126 149.663 223.478V232.2H145.697Z" fill="#5C6D9B"/>
<path d="M163.184 218.564V215.407H165.98V211.242H169.978V215.407H173.976V218.564H169.978V226.407C169.978 228.099 170.677 228.832 172.253 228.848C172.789 228.832 173.358 228.75 173.976 228.588V232.232C173.293 232.477 172.464 232.656 171.505 232.656C168.011 232.656 165.996 230.443 165.98 226.635V218.564H163.184Z" fill="#5C6D9B"/>
<path d="M183.304 232.656C180.59 232.656 178.25 231.663 176.641 229.792L179.111 227.383C180.379 228.718 181.614 229.271 183.369 229.271C185.287 229.271 186.376 228.539 186.36 227.318C186.376 226.293 185.661 225.821 183.402 225.268L182.557 225.04C178.981 224.194 177.21 222.583 177.226 220.191C177.21 217.181 179.989 214.952 183.694 214.952C186.116 214.952 188.359 215.944 189.968 217.685L187.53 220.094C186.425 218.922 185.19 218.336 183.694 218.336C182.086 218.336 181.013 219.036 181.029 220.094C181.013 220.891 181.582 221.265 183.434 221.721L184.312 221.949C188.359 222.925 190.195 224.568 190.195 227.221C190.195 230.443 187.416 232.656 183.304 232.656Z" fill="#5C6D9B"/>
<path fill-rule="evenodd" clip-rule="evenodd" d="M95.2001 188.842L63.7515 107.142H45.4066L13.958 188.842H30.9927L43.4744 152.488L55.5244 188.842H95.2001ZM75.8279 182.033L55.8895 123.962H53.2688L47.1055 141.913L60.4041 182.033H75.8279Z" fill="#5C6D9B"/>
<path d="M390.375 129.75V139.375H346V160.875H334.125V139.375H288V129.75H390.375ZM377.125 78.25V118.25H301V78.25H377.125ZM312.75 87.75V108.625H365.375V87.75H312.75ZM379 173V182.75H300.625V150.625H312.625V173H379ZM439.125 101.375C439.062 121.938 450.562 142.375 467.5 150.25L460.375 159.875C447.688 153.438 438.062 140.75 433.25 125.375C428.25 141.562 418.438 155.125 405.625 161.75L398.125 152.25C415.062 144 427.062 122.75 427.125 101.375V82.375H439.125V101.375ZM492.125 73.125V185.25H480.25V120H455.25V110.25H480.25V73.125H492.125Z" fill="black"/>
</g>
<defs>
<linearGradient id="paint0_linear_351_336" x1="204" y1="0" x2="-0.307262" y2="257.756" gradientUnits="userSpaceOnUse">
<stop stop-color="#8591B4"/>
<stop offset="0.5" stop-color="#5C6D9B"/>
<stop offset="1" stop-color="#1F2B4E"/>
</linearGradient>
<clipPath id="clip0_351_336">
<rect width="506" height="258" fill="white"/>
</clipPath>
</defs>
</svg>
