<svg width="800" height="800" viewBox="0 0 800 800" fill="none" xmlns="http://www.w3.org/2000/svg">
<rect x="115" y="40" width="570" height="720" rx="26" fill="url(#paint0_linear_351_304)" fill-opacity="0.15"/>
<g opacity="0.4">
<path d="M646 88C648.761 88 651 90.2386 651 93C651 95.7614 648.761 98 646 98H154C151.239 98 149 95.7614 149 93C149 90.2386 151.239 88 154 88H646Z" fill="#ADB6CD"/>
<path d="M646 182C648.761 182 651 184.239 651 187C651 189.761 648.761 192 646 192H154C151.239 192 149 189.761 149 187C149 184.239 151.239 182 154 182H646Z" fill="#ADB6CD"/>
<path d="M646 276C648.761 276 651 278.239 651 281C651 283.761 648.761 286 646 286H154C151.239 286 149 283.761 149 281C149 278.239 151.239 276 154 276H646Z" fill="#ADB6CD"/>
<path d="M646 370C648.761 370 651 372.239 651 375C651 377.761 648.761 380 646 380L413 380C410.239 380 408 377.761 408 375C408 372.239 410.239 370 413 370L646 370Z" fill="#ADB6CD"/>
<path d="M646 464C648.761 464 651 466.239 651 469C651 471.761 648.761 474 646 474L413 474C410.239 474 408 471.761 408 469C408 466.239 410.239 464 413 464L646 464Z" fill="#ADB6CD"/>
<path d="M646 558C648.761 558 651 560.239 651 563C651 565.761 648.761 568 646 568L413 568C410.239 568 408 565.761 408 563C408 560.239 410.239 558 413 558L646 558Z" fill="#ADB6CD"/>
</g>
<path d="M160.085 688V622.246H179.248C200.909 622.246 215.122 635.233 215.213 655.123C215.122 675.013 200.909 688 179.248 688H160.085ZM171.71 677.102H179.248C194.415 677.102 203.406 668.973 203.406 655.123C203.406 641.273 194.415 633.145 179.248 633.145H171.71V677.102Z" fill="#293A68"/>
<path d="M246.818 689.271C232.877 689.271 222.342 678.646 222.297 664.568C222.342 650.491 232.877 639.865 246.818 639.865C260.759 639.865 271.294 650.491 271.34 664.568C271.294 678.646 260.759 689.271 246.818 689.271ZM246.818 679.009C254.765 678.963 260.396 673.06 260.441 664.568C260.396 656.077 254.765 650.173 246.818 650.128C238.872 650.173 233.241 656.077 233.195 664.568C233.241 673.06 238.872 678.963 246.818 679.009Z" fill="#293A68"/>
<path d="M302.854 689.271C288.732 689.271 278.106 678.646 278.061 664.568C278.106 650.491 288.732 639.865 302.854 639.865C312.345 639.865 320.02 644.679 323.925 652.308L314.116 656.667C311.937 652.535 307.986 650.173 302.854 650.128C294.681 650.173 289.004 656.077 288.959 664.568C289.004 673.06 294.681 678.963 302.854 679.009C307.986 678.963 311.937 676.602 314.116 672.47L323.925 676.829C320.02 684.458 312.345 689.271 302.854 689.271Z" fill="#293A68"/>
<path d="M375.329 641.137V688H364.249V681.098H363.977C361.434 686.138 356.257 689.271 349.627 689.271C339.001 689.271 332.961 681.643 333.007 669.2V641.137H344.178V667.384C344.087 674.831 347.447 678.963 353.351 679.009C359.163 678.963 364.204 674.831 364.249 665.477V641.137H375.329Z" fill="#293A68"/>
<path d="M386.772 688V641.137H397.853V648.039H398.216C400.486 642.999 405.3 639.865 411.476 639.865C418.242 639.865 423.01 643.453 425.371 649.765H425.644C427.642 643.725 432.955 639.865 440.084 639.865C450.21 639.865 456.068 647.494 456.068 659.937V688H444.897V661.753C444.943 654.306 441.9 650.173 436.724 650.128C431.547 650.173 427.051 654.215 427.006 663.388V688H415.835V661.753C415.835 654.306 412.792 650.173 407.57 650.128C402.439 650.173 397.898 654.306 397.853 663.66V688H386.772Z" fill="#293A68"/>
<path d="M490.308 689.271C475.458 689.271 465.196 678.736 465.15 664.568C465.196 650.219 475.458 639.865 489.399 639.865C503.34 639.865 512.967 650.219 512.922 664.568C512.967 665.794 512.876 667.021 512.74 668.201H476.503C477.547 675.285 483.087 679.826 490.398 679.826C495.757 679.826 499.617 677.329 501.569 673.196L511.287 677.011C507.563 684.503 500.252 689.271 490.308 689.271ZM476.775 659.21H501.388C500.752 653.579 496.075 649.311 489.399 649.311C483.042 649.311 478.229 653.216 476.775 659.21Z" fill="#293A68"/>
<path d="M522.095 688V641.137H533.175V648.039H533.538C535.99 642.999 541.167 639.865 547.797 639.865C558.423 639.865 564.462 647.494 564.417 659.937V688H553.246V661.753C553.337 654.306 549.977 650.173 544.073 650.128C538.261 650.173 533.22 654.306 533.175 663.66V688H522.095Z" fill="#293A68"/>
<path d="M570.956 649.946V641.137H578.767V629.512H589.938V641.137H601.108V649.946H589.938V671.834C589.938 676.557 591.89 678.6 596.295 678.646C597.793 678.6 599.383 678.373 601.108 677.919V688.091C599.201 688.772 596.885 689.271 594.206 689.271C584.443 689.271 578.812 683.096 578.767 672.47V649.946H570.956Z" fill="#293A68"/>
<path d="M627.174 689.271C619.59 689.271 613.051 686.501 608.556 681.279L615.458 674.559C619 678.282 622.451 679.826 627.355 679.826C632.714 679.826 635.756 677.783 635.711 674.377C635.756 671.516 633.758 670.199 627.446 668.655L625.085 668.02C615.095 665.658 610.145 661.163 610.19 654.487C610.145 646.086 617.91 639.865 628.264 639.865C635.03 639.865 641.296 642.635 645.792 647.494L638.98 654.215C635.893 650.945 632.441 649.311 628.264 649.311C623.768 649.311 620.771 651.263 620.816 654.215C620.771 656.44 622.36 657.484 627.537 658.756L629.989 659.392C641.296 662.116 646.428 666.703 646.428 674.104C646.428 683.096 638.663 689.271 627.174 689.271Z" fill="#293A68"/>
<path fill-rule="evenodd" clip-rule="evenodd" d="M381 567L293.129 339H241.871L154 567H201.597L236.472 465.549L270.141 567H381ZM326.872 548L271.162 385.941H263.839L246.618 436.036L283.776 548H326.872Z" fill="#293A68"/>
<defs>
<linearGradient id="paint0_linear_351_304" x1="685" y1="40" x2="115" y2="760" gradientUnits="userSpaceOnUse">
<stop stop-color="#8591B4"/>
<stop offset="0.5" stop-color="#5C6D9B"/>
<stop offset="1" stop-color="#1F2B4E"/>
</linearGradient>
</defs>
</svg>
